<?xml version="1.0" encoding="utf-8"?>
<!-- Generator: Adobe Illustrator 23.1.0, SVG Export Plug-In . SVG Version: 6.00 Build 0)  -->
<svg version="1.1" id="Capa_1" xmlns="http://www.w3.org/2000/svg" xmlns:xlink="http://www.w3.org/1999/xlink" x="0px" y="0px"
	 viewBox="0 0 300 300" style="enable-background:new 0 0 300 300;" xml:space="preserve">
<style type="text/css">
	.st0{fill:#FFFFFF;}
</style>
<path class="st0" d="M259.7,20.5H121.1c-21.7,0-39.6,17.9-39.6,39.6v1H40.3c-21.7,0-39.6,17.5-39.6,39.6v81.1
	c0,21.7,17.9,39.6,39.6,39.6h12V273c0,2.6,1.6,4.9,3.9,5.8c0.6,0.3,1.6,0.6,2.6,0.6c1.6,0,3.2-0.6,4.5-1.9l56.1-56.1h59.4
	c11,0,21.7-4.9,29.2-13l28.6,28.6c1.3,1.3,2.9,1.9,4.5,1.9c1,0,1.6-0.3,2.6-0.6c2.3-1,3.9-3.2,3.9-5.8v-51.6h12
	c21.7,0,39.6-17.9,39.6-39.6V60.1C299.3,38.4,281.4,20.5,259.7,20.5z M178.9,208.4h-62c-1.6,0-3.2,0.6-4.5,1.9l-47.1,47.1v-42.5
	c0-3.6-2.9-6.5-6.5-6.5H40.3c-14.6,0-26.6-12-26.6-26.6v-81.1c0-14.6,12-26.6,26.6-26.6h41.2v67.5c0,21.7,17.9,39.6,39.6,39.6h59.4
	l18.2,18.2C193.8,204.9,186.7,208.4,178.9,208.4z M286.3,141.2c0,14.6-12,26.6-26.6,26.6h-18.5c-3.6,0-6.5,2.9-6.5,6.5v42.5l-23-23
	l0,0l-24-24c-1.3-1.3-2.9-1.9-4.5-1.9h-62c-14.6,0-26.6-12-26.6-26.6V60.1c0-14.6,12-26.6,26.6-26.6h138.6c14.6,0,26.6,12,26.6,26.6
	V141.2L286.3,141.2z"/>
</svg>
