<?xml version="1.0" encoding="utf-8"?>
<!-- Generator: Adobe Illustrator 23.1.0, SVG Export Plug-In . SVG Version: 6.00 Build 0)  -->
<svg version="1.1" id="Capa_1" xmlns="http://www.w3.org/2000/svg" xmlns:xlink="http://www.w3.org/1999/xlink" x="0px" y="0px"
	 viewBox="0 0 300 300" style="enable-background:new 0 0 300 300;" xml:space="preserve">
<style type="text/css">
	.st0{fill:#FFFFFF;}
</style>
<g>
	<path class="st0" d="M120.2,163.2c-14.6,0-28.5,0-42.7,0c0-17.9,0-35.5,0-53.3c14.1,0,28.1,0,42.6,0c0-1.4,0-2.5,0-3.7
		c0.2-15.2-0.3-30.3,0.6-45.4c1.3-21.5,9.5-39.8,28.5-51.8c10-6.4,21.2-9.1,32.9-9.1c12.6,0.1,25.2,1,37.8,1.6
		c0.9,0,1.7,0.4,2.6,0.6c0,15.8,0,31.5,0,47.7c-1.2,0-2.2,0-3.3,0c-8.5,0-16.9,0-25.4,0.1c-2.4,0-4.8,0.3-7.1,0.8
		c-8.4,1.8-13,7-14.3,16.2c-0.4,2.8-0.6,5.7-0.6,8.6c-0.1,11.3,0,22.5,0,34.2c16.4,0,32.6,0,49.2,0c-0.8,6.4-1.5,12.4-2.2,18.4
		c-1.3,10.7-2.7,21.3-3.9,32c-0.3,2.4-1,3.2-3.4,3.2c-12-0.1-24.1-0.1-36.1-0.1c-1.1,0-2.1,0-3.5,0c0,45.7,0,91.1,0,136.7
		c-17.3,0-34.3,0-51.6,0C120.2,254.6,120.2,209.2,120.2,163.2z"/>
</g>
</svg>
