<?xml version="1.0" encoding="utf-8"?>
<!-- Generator: Adobe Illustrator 23.1.0, SVG Export Plug-In . SVG Version: 6.00 Build 0)  -->
<svg version="1.1" id="Capa_1" xmlns="http://www.w3.org/2000/svg" xmlns:xlink="http://www.w3.org/1999/xlink" x="0px" y="0px"
	 viewBox="0 0 300 300" style="enable-background:new 0 0 300 300;" xml:space="preserve">
<style type="text/css">
	.st0{fill:#FFFFFF;}
</style>
<g>
	<path class="st0" d="M0,150c0-20.9,0.1-41.8,0-62.8c-0.1-35,21-66.3,52.3-80C60.2,3.8,68.4,1.6,77,0.6c3-0.3,6-0.5,9-0.5
		c42.5,0,85.1-0.1,127.6,0c20.1,0,38,6.5,53.6,19.1c15.7,12.6,25.9,28.8,30.6,48.5c1.4,6,2.2,12.2,2.2,18.4c0,42.6,0.1,85.3,0,127.9
		c-0.1,20.7-7.1,39-20.3,54.9c-11.3,13.6-25.6,22.8-42.6,27.8c-7.6,2.2-15.4,3.4-23.4,3.4c-42.2,0-84.4,0-126.7,0
		c-18.4,0-35.2-5.4-50.1-16C20.1,272,8.8,256,3.2,236.2C1,228.7,0,221.1,0,213.4C0,192.2,0,171.1,0,150z M150,23.1
		C150,23.1,150,23.1,150,23.1c-20.7,0-41.4,0-62.1,0c-9.8,0-19.3,1.6-28.1,6.1C36.2,41.1,23.5,60.5,23.2,87c-0.5,42-0.1,84-0.1,126
		c0,8.3,1.5,16.3,4.7,24c10,24.4,33.2,39.9,59.6,39.9c41.6,0,83.2,0,124.8,0c3.2,0,6.4-0.3,9.5-0.6c9.4-1.2,18.2-4.3,26.1-9.6
		c19.1-12.9,28.9-31,29.1-53.9c0.2-41.8,0.1-83.5,0.1-125.3c0-5.2-0.6-10.3-1.8-15.4c-6.6-27.7-31.3-48.5-61.4-48.8
		C192.5,23,171.2,23.1,150,23.1z"/>
	<path class="st0" d="M230.7,150.1c0.1,44.4-36.5,80.9-81.2,80.7c-44.1-0.2-80.6-36.6-80.4-81.2c0.2-44.1,36.7-81,82.1-80.3
		C194.9,69.9,230.9,105.9,230.7,150.1z M150.1,92.3c-32,0-57.8,25.7-57.8,57.7c0,31.9,25.8,57.7,57.7,57.7
		c31.9,0,57.7-25.8,57.7-57.6C207.7,118.2,181.9,92.3,150.1,92.3z"/>
	<path class="st0" d="M242.3,69.3c-6.4,0-11.5-5.1-11.5-11.6c0-6.4,5.1-11.5,11.6-11.5c6.4,0,11.5,5.1,11.5,11.6
		C253.8,64.1,248.7,69.2,242.3,69.3z"/>
</g>
</svg>
