<?xml version="1.0" encoding="utf-8"?>
<!-- Generator: Adobe Illustrator 23.1.0, SVG Export Plug-In . SVG Version: 6.00 Build 0)  -->
<svg version="1.1" id="Capa_1" xmlns="http://www.w3.org/2000/svg" xmlns:xlink="http://www.w3.org/1999/xlink" x="0px" y="0px"
	 viewBox="0 0 300 300" style="enable-background:new 0 0 300 300;" xml:space="preserve">
<style type="text/css">
	.st0{fill:#FFFFFF;}
</style>
<g>
	<path class="st0" d="M90.8,218.8c-27.1,20.4-56.9,28.4-90.3,25.5c0.7,0.6,0.9,0.8,1,0.9c24,15,50.1,23.7,78.2,26.1
		c17.1,1.4,34.1,0.5,51-2.9c31.8-6.2,59.9-20.1,83.1-42.8c37.7-36.8,56.1-81.8,55.6-134.4c0-1.9,0.5-3,2-4.1
		c8.1-5.9,15.2-12.9,21.5-20.6c2.3-2.8,4.4-5.8,6.5-8.7c-10.9,3.9-21.7,7.1-33.1,8.2c11.9-8.3,20.6-18.9,25.2-33
		c-6.2,2.9-11.9,6-17.9,8.2c-6,2.3-12.3,3.7-18.4,5.7c-2,0.6-3.2,0.1-4.6-1.2C231.5,28,209.3,23,185.2,32.5
		c-23.2,9.1-36.2,27-38.7,52c-0.6,6.2,0.2,12.6,0.4,19.1c-50.7-3.5-92.8-25-126.1-64.2C12.9,53.5,10.7,68.2,14,83.7
		c3.4,15.6,12,27.8,25.3,37.6c-10.1-0.4-18.8-3.2-27.7-7.7c2,32.2,18.2,52.2,48.4,61.4c-8.7,2.1-17.3,2.6-26.4,0.8
		c3,9.6,7.8,17.5,14.4,24.2C59.5,211.7,73.6,217.9,90.8,218.8z"/>
	<path class="st0" d="M90.8,218.8c-17.2-0.8-31.3-7-42.8-18.7c-6.6-6.7-11.5-14.6-14.4-24.2c9.1,1.8,17.7,1.3,26.4-0.8
		c-30.2-9.3-46.3-29.3-48.4-61.4c8.9,4.5,17.5,7.3,27.7,7.7C26,111.5,17.4,99.2,14,83.7c-3.4-15.5-1.1-30.1,6.8-44.3
		c33.3,39.2,75.4,60.7,126.1,64.2c-0.2-6.6-1-12.9-0.4-19.1c2.5-25,15.5-42.9,38.7-52c24.2-9.5,46.3-4.5,65.5,13.1
		c1.4,1.3,2.6,1.9,4.6,1.2c6.1-2,12.4-3.4,18.4-5.7c6-2.3,11.7-5.3,17.9-8.2c-4.6,14.1-13.3,24.7-25.2,33
		c11.4-1.1,22.2-4.4,33.1-8.2c-2.2,2.9-4.2,5.9-6.5,8.7c-6.3,7.7-13.5,14.7-21.5,20.6c-1.5,1.1-2,2.3-2,4.1
		c0.5,52.7-17.9,97.7-55.6,134.4c-23.2,22.6-51.2,36.5-83.1,42.8c-16.9,3.3-33.9,4.3-51,2.9c-28.2-2.4-54.3-11.1-78.2-26.1
		c-0.2-0.1-0.3-0.2-1-0.9C33.9,247.1,63.7,239.2,90.8,218.8z"/>
</g>
</svg>
