<?xml version="1.0" encoding="utf-8"?>
<!-- Generator: Adobe Illustrator 23.1.0, SVG Export Plug-In . SVG Version: 6.00 Build 0)  -->
<svg version="1.1" id="Layer_1" xmlns="http://www.w3.org/2000/svg" xmlns:xlink="http://www.w3.org/1999/xlink" x="0px" y="0px"
	 viewBox="0 0 318.5 318.5" style="enable-background:new 0 0 318.5 318.5;" xml:space="preserve">
<style type="text/css">
	.st0{fill:#A2C3CC;}
	.st1{fill:#6D9FAA;}
	.st2{fill:#FEFEFE;}
</style>
<rect class="st0" width="319" height="319"/>
<g>
	<g>
		<path class="st1" d="M292.9,159.3c-0.4,73.9-59.6,133.8-134.1,133.6c-73.7-0.2-133.2-59.4-133.3-133.5
			C25.5,85.1,85.3,25.5,159.5,25.6C233.4,25.8,292.5,85.2,292.9,159.3z M32.9,159.4c0.3,4.9,0.4,9.8,1,14.7c0.8,7,2.2,13.9,4.1,20.6
			c2.4,8.3,5.7,16.3,9.8,24c3.1,5.7,6.6,11.1,10.5,16.4c0.8,1.1,1.2,0.9,1.7-0.2c1.3-2.9,2.8-5.8,4.5-8.6
			c4.3-6.9,9.4-13.3,15.5-18.7c6.8-6,14.3-10.9,22.6-14.4c4.6-2,9.4-3.6,14.4-4.6c4.7-1,9.5-1.8,14.3-1.8c18.5,0,37,0,55.4,0
			c6.4,0,12.7,1.1,18.9,2.9c8.8,2.4,17,6.3,24.5,11.6c5.2,3.7,10.1,7.8,14.4,12.6c5.7,6.4,10.4,13.4,13.9,21.2
			c0.5,1.1,0.8,1.2,1.6,0.2c3.1-4.1,5.9-8.4,8.5-12.8c4.1-7,7.4-14.3,10-21.9c2.5-7.2,4.3-14.6,5.4-22.2c0.8-5.7,1.2-11.4,1.5-17.1
			c0.1-2.8-0.1-5.6-0.2-8.5c-0.1-3.7-0.6-7.4-1.1-11.1c-0.8-6-2.1-11.9-3.8-17.7c-1.7-5.8-3.9-11.5-6.4-17
			c-3-6.6-6.6-12.9-10.7-18.9c-2.8-4.1-6-8-9.2-11.7c-4.8-5.6-10.1-10.6-15.8-15.2c-5.7-4.7-11.8-8.7-18.3-12.3
			c-7.7-4.2-15.6-7.6-24-10.1c-5.9-1.7-11.8-3-17.8-4c-5.5-0.9-11-1.1-16.5-1.5c-4.3-0.3-8.6,0.3-12.9,0.4c-2.3,0-4.5,0.4-6.8,0.7
			c-5.8,1-11.6,2.1-17.3,3.7c-5.4,1.5-10.7,3.4-15.9,5.6C100.8,47,93,51.4,85.7,56.6c-4.8,3.4-9.3,7.1-13.5,11.2
			c-7.4,7.1-13.9,15-19.4,23.7c-4.6,7.1-8.4,14.6-11.4,22.5c-3.3,8.4-5.5,17-6.9,26C33.5,146.3,33.2,152.8,32.9,159.4z"/>
	</g>
	<ellipse class="st1" cx="159.2" cy="111.3" rx="47" ry="57.9"/>
</g>
<path class="st2" d="M-184.3-145.2"/>
</svg>
