<?xml version="1.0" encoding="utf-8"?>
<!-- Generator: Adobe Illustrator 23.1.0, SVG Export Plug-In . SVG Version: 6.00 Build 0)  -->
<svg version="1.1" id="Layer_1" xmlns="http://www.w3.org/2000/svg" xmlns:xlink="http://www.w3.org/1999/xlink" x="0px" y="0px"
	 viewBox="0 0 319 319" style="enable-background:new 0 0 319 319;" xml:space="preserve">
<style type="text/css">
	.st0{fill:#A2C3CC;}
	.st1{fill:#6D9FAA;}
</style>
<rect class="st0" width="319" height="319"/>
<path class="st1" d="M290.3,292c0-9.3-2.1-18.6-6.5-26.8c-1.1-2.1-2.3-4.1-3.6-5.8c-7.5-10.1-44.8-23.8-64.2-31
	c-6.4-2.4-9.8-3.7-11.5-4.5c-0.1-0.1-0.2-0.1-0.3-0.2c-2.9-2.5-11.4-14.1-11.4-14.1h-0.1h-0.5v-9.8c0-0.5,0.2-0.9,0.5-1.3
	c5.9-6.5,10.3-13.6,12.9-19c1.6-3.2,3.1-13,3.6-16.1c0.1-0.6,0.5-1.1,1-1.4c10.9-5.8,12.3-23.8,12.8-34c0.2-3.8-1.1-5-3-5
	c-1.2,0-2.1-0.9-2-2c0,0,0,0,0,0c0-0.2,0.1-0.3,0.1-0.5c4.1-10.6,7-21.7,7.3-33c0.4-17.5-6.7-36.1-21.5-45.4
	c-13.8-8.7-31.3-7.9-47.6-6.9c-9.1,0.6-18.5,1.2-26.8,5.2c-7.2,3.5-12.5,10.6-13.4,18.4c-0.2,1.3-1.6,2-2.7,1.4
	c-4.3-2.2-10.3-0.9-13.9,2.6c-4.4,4.3-6,10.7-6.8,16.8c-1.4,10.1-1.3,20.5,1.7,30.3c1.1,3.7,2.7,7.2,4.7,10.5c0.6,1,0.1,2.4-1,2.7
	c-1.3,0.4-2.1,1.8-2,4.9c0.5,10.2,1.8,28.2,12.7,34c0.5,0.3,0.9,0.8,1,1.4c1,7.5,2.2,13.3,3.5,16.1c2.6,5.5,7.1,12.6,13,19.1
	c0.3,0.3,0.5,0.8,0.5,1.3v9.6h-0.5h-0.1c0,0-8.8,11.9-11.6,14.2c-0.3,0.3-1.6,0.8-3.5,1.6c-2.1,0.8-5,1.9-8.3,3.1
	c-19.4,7.2-56.6,20.9-64,31c-1.3,1.7-2.5,3.7-3.6,5.8c-4.4,8.2-6.5,17.5-6.5,26.8v24.9c0,1,0.8,1.9,1.9,1.9h257.8
	c1,0,1.9-0.8,1.9-1.9V292z"/>
</svg>
