<?xml version="1.0" standalone="no"?>
<!DOCTYPE svg PUBLIC "-//W3C//DTD SVG 20010904//EN"
 "http://www.w3.org/TR/2001/REC-SVG-20010904/DTD/svg10.dtd">
<svg version="1.0" xmlns="http://www.w3.org/2000/svg"
 width="159.000000pt" height="159.000000pt" viewBox="0 0 159.000000 159.000000"
 preserveAspectRatio="xMidYMid meet">
<metadata>
Created by potrace 1.11, written by Peter Selinger 2001-2013
</metadata>
<g transform="translate(0.000000,159.000000) scale(0.100000,-0.100000)"
fill="#000000" stroke="none">
<path d="M17 1522 c-16 -3 -17 -58 -17 -728 l0 -724 793 0 793 0 -1 718 c-1
394 -3 722 -3 727 -2 9 -1519 16 -1565 7z m1553 -723 c0 -557 -3 -708 -12
-711 -21 -6 -1523 -2 -1533 4 -6 4 -9 260 -8 705 0 384 1 701 2 704 1 3 350 6
776 6 l775 0 0 -708z"/>
<path d="M430 1013 c0 -349 1 -371 18 -367 16 5 17 28 16 320 0 173 2 317 6
319 3 2 61 -52 129 -121 108 -111 141 -135 141 -103 0 5 -70 80 -155 167
l-154 157 -1 -372z"/>
<path d="M1049 1251 c-194 -201 -185 -189 -170 -204 10 -10 37 14 136 118
l124 130 1 -322 c0 -308 1 -323 19 -323 17 0 18 16 18 365 0 201 -1 365 -2
365 -1 0 -58 -58 -126 -129z"/>
<path d="M780 1026 c-6 -8 -10 -25 -8 -38 4 -32 57 -33 69 -1 14 39 -34 70
-61 39z"/>
<path d="M790 681 c0 -132 4 -242 8 -245 25 -15 29 20 28 244 -1 215 -2 235
-18 238 -17 3 -18 -13 -18 -237z"/>
<path d="M139 300 c0 -16 0 -50 0 -75 0 -65 0 -65 16 -65 12 0 15 16 15 85 0
69 -3 85 -15 85 -10 0 -15 -10 -16 -30z"/>
<path d="M226 258 c2 -97 2 -98 19 -98 10 0 15 15 17 55 l3 55 40 -55 c55 -76
68 -70 69 30 0 65 -3 80 -15 83 -12 2 -16 -8 -18 -44 0 -26 -3 -49 -5 -51 -2
-2 -20 19 -41 47 -54 73 -70 68 -69 -22z"/>
<path d="M424 314 c39 -105 63 -154 76 -154 9 0 26 26 42 68 42 104 42 102 24
102 -9 0 -20 -10 -25 -22 -5 -13 -16 -41 -26 -63 l-17 -40 -21 60 c-15 40 -28
61 -41 63 -15 3 -17 0 -12 -14z"/>
<path d="M630 245 l0 -85 65 0 c51 0 65 3 65 15 0 11 -12 15 -50 15 -43 0 -50
3 -50 19 0 16 8 20 42 23 59 4 63 28 4 28 -39 0 -46 3 -46 20 0 17 7 20 50 20
38 0 50 4 50 15 0 12 -14 15 -65 15 l-65 0 0 -85z"/>
<path d="M816 314 c-34 -33 -16 -66 42 -79 24 -5 32 -12 30 -23 -4 -18 -28
-21 -65 -8 -29 9 -32 -18 -4 -34 45 -24 111 0 105 38 -1 6 -2 16 -3 21 0 5
-19 16 -40 24 -22 9 -42 21 -46 27 -10 16 23 24 50 12 31 -14 46 5 20 25 -25
18 -70 17 -89 -3z"/>
<path d="M960 315 c0 -10 10 -15 28 -15 l29 0 -1 -67 c0 -56 3 -68 17 -71 15
-3 17 6 17 67 0 69 1 71 25 71 16 0 25 6 25 15 0 12 -14 15 -70 15 -56 0 -70
-3 -70 -15z"/>
<path d="M1140 271 c0 -73 25 -111 73 -111 57 0 77 30 77 114 0 47 -3 56 -17
56 -15 0 -18 -9 -17 -55 2 -72 -24 -102 -65 -76 -9 6 -14 29 -15 70 -1 51 -4
61 -18 61 -15 0 -18 -9 -18 -59z"/>
<path d="M1346 308 c-20 -29 -3 -57 44 -73 19 -6 36 -17 38 -23 6 -18 -26 -26
-55 -13 -33 15 -56 -2 -29 -22 26 -19 81 -20 100 -2 32 33 16 67 -37 80 -32 9
-43 23 -28 38 7 7 17 7 35 0 31 -15 54 4 28 23 -28 22 -79 17 -96 -8z"/>
</g>
</svg>
